<svg width="228" height="30" viewBox="0 0 228 30" fill="none" xmlns="http://www.w3.org/2000/svg">
<path d="M21.6471 3.51171H19.8778V1.70569H18.1086V0H5.41176V1.80602H3.53845V3.61204H1.76923V5.41806H0V30H1.76923V28.194H3.53845V26.388H5.3077V28.194H7.07692V30H8.84615V28.194H10.6154V26.388H12.3846V28.194H14.1538V30H15.9231V28.194H17.6923V26.388H19.4615V28.194H21.2308V30H23V5.31773H21.2308V3.51171H21.6471ZM8.95022 13.0435H7.181V14.7492H5.41176V13.0435H3.64252V11.3378H5.41176V9.63211H7.181V11.3378H8.95022V13.0435ZM19.8778 13.0435H18.1086V14.7492H16.3394V13.0435H14.5702V11.3378H16.3394V9.63211H18.1086V11.3378H19.8778V13.0435Z" fill="#18FF19"/>
<path d="M221.41 29.5096V0.490482H227.908V29.5096H221.41Z" fill="#18FF19"/>
<path d="M187.649 29.5096L200.074 0.490482H205.96L218.385 29.5096H211.6L209.025 23.3788H197.009L194.434 29.5096H187.649ZM203.017 9.03272L199.339 17.7384H206.655L203.017 9.03272Z" fill="#18FF19"/>
<path d="M184.906 28.5694C184.061 29.4141 183.039 29.8364 181.84 29.8364C180.641 29.8364 179.606 29.4141 178.734 28.5694C177.889 27.6974 177.467 26.662 177.467 25.4631C177.467 24.2642 177.889 23.2424 178.734 22.3977C179.606 21.5258 180.641 21.0898 181.84 21.0898C183.039 21.0898 184.061 21.5258 184.906 22.3977C185.778 23.2424 186.214 24.2642 186.214 25.4631C186.214 26.662 185.778 27.6974 184.906 28.5694Z" fill="#18FF19"/>
<path d="M145.301 29.5096L157.726 0.490482H163.611L176.036 29.5096H169.252L166.677 23.3788H154.66L152.085 29.5096H145.301ZM160.668 9.03272L156.99 17.7384H164.306L160.668 9.03272Z" fill="#18FF19"/>
<path d="M131.125 30C126.738 30 123.1 28.5559 120.212 25.6676C117.324 22.7793 115.88 19.2234 115.88 15C115.88 10.7766 117.324 7.22071 120.212 4.33243C123.1 1.44414 126.738 0 131.125 0C134.367 0 137.324 0.967303 139.994 2.90191C142.692 4.80927 144.436 7.3297 145.226 10.4632H138.155C137.528 9.12807 136.574 8.10627 135.294 7.39782C134.013 6.66213 132.624 6.29428 131.125 6.29428C128.509 6.29428 126.397 7.12534 124.79 8.78747C123.209 10.4496 122.419 12.5204 122.419 15C122.419 17.4796 123.209 19.5504 124.79 21.2125C126.397 22.8747 128.509 23.7057 131.125 23.7057C132.624 23.7057 134.013 23.3515 135.294 22.6431C136.574 21.9074 137.528 20.8719 138.155 19.5368H145.226C144.436 22.6703 142.692 25.2044 139.994 27.139C137.324 29.0463 134.367 30 131.125 30Z" fill="#18FF19"/>
<path d="M104.861 29.5096V0.490482H111.359V29.5096H104.861Z" fill="#18FF19"/>
<path d="M97.7584 3.35152C99.7203 5.25887 100.701 7.61582 100.701 10.4224C100.701 13.2289 99.7203 15.5859 97.7584 17.4932C95.8238 19.3733 93.3987 20.3134 90.4832 20.3134H87.1317V29.5096H80.6331V0.490482H90.4832C93.3987 0.490482 95.8238 1.44416 97.7584 3.35152ZM94.4069 10.4224C94.4069 9.33244 94.0254 8.43326 93.2625 7.72481C92.5268 6.98912 91.5731 6.62127 90.4015 6.62127H87.1317V14.2235H90.4015C91.5459 14.2235 92.4995 13.8556 93.2625 13.1199C94.0254 12.3842 94.4069 11.485 94.4069 10.4224Z" fill="#18FF19"/>
<path d="M60.1016 29.5096V17.2888L49.5157 0.490482H57.0771L63.3305 10.9537L69.6656 0.490482H77.2269L66.6411 17.3297V29.5096H60.1016Z" fill="#18FF19"/>
<path d="M33.2559 29.5096V6.70302H25.858V0.490482H47.2749V6.70302H39.7954V29.5096H33.2559Z" fill="#18FF19"/>
</svg>
